<svg width="487" height="487" viewBox="0 0 487 487" fill="none" xmlns="http://www.w3.org/2000/svg">
<g clip-path="url(#clip0_1_62)">
<rect width="487" height="487" fill="white"/>
<path d="M243.5 0C195.341 0 148.262 14.281 108.219 41.0372C68.1755 67.7932 36.9655 105.823 18.5355 150.317C0.105509 194.81 -4.71661 243.77 4.6789 291.004C14.0744 338.238 37.2656 381.627 71.3198 415.68C105.374 449.734 148.761 472.926 195.995 482.321C243.231 491.716 292.19 486.895 336.683 468.464C381.178 450.035 419.208 418.826 445.964 378.782C472.72 338.739 487 291.659 487 243.5C487 178.919 461.347 116.985 415.682 71.3195C370.016 25.6543 308.08 0 243.5 0ZM243.5 449.539C202.751 449.539 162.914 437.455 129.031 414.814C95.1485 392.174 68.7401 359.995 53.1454 322.348C37.5509 284.698 33.4707 243.271 41.4206 203.304C49.3708 163.336 68.994 126.624 97.8091 97.8088C126.624 68.9939 163.337 49.3705 203.304 41.4206C243.272 33.4705 284.699 37.5507 322.348 53.1454C359.996 68.7398 392.175 95.1484 414.815 129.031C437.455 162.914 449.54 202.749 449.54 243.5C449.54 298.145 427.832 350.551 389.192 389.191C350.551 427.831 298.146 449.539 243.5 449.539Z" fill="black"/>
<path d="M145.925 238.634C147.667 240.389 149.738 241.783 152.021 242.733C154.304 243.685 156.752 244.173 159.224 244.173C161.697 244.173 164.145 243.685 166.428 242.733C168.71 241.783 170.782 240.389 172.523 238.634L216.541 194.616C224.811 186.226 229.855 175.186 230.782 163.442C231.709 151.697 228.461 140.003 221.61 130.419C214.758 120.835 204.743 113.978 193.329 111.056C181.917 108.135 169.838 109.336 159.224 114.448C148.594 109.02 136.368 107.589 124.772 110.415C113.175 113.241 102.978 120.135 96.0364 129.845C89.0945 139.555 85.869 151.433 86.9465 163.321C88.0242 175.208 93.3333 186.313 101.908 194.616L145.925 238.634ZM128.319 149.849C129.455 148.66 130.822 147.712 132.335 147.065C133.848 146.418 135.476 146.085 137.122 146.085C138.768 146.085 140.396 146.418 141.909 147.065C143.423 147.712 144.789 148.66 145.925 149.849C147.667 151.605 149.738 152.999 152.021 153.949C154.304 154.9 156.752 155.39 159.224 155.39C161.697 155.39 164.145 154.9 166.428 153.949C168.71 152.999 170.782 151.605 172.523 149.849C173.673 148.683 175.044 147.756 176.555 147.124C178.067 146.492 179.688 146.166 181.326 146.166C182.964 146.166 184.587 146.492 186.098 147.124C187.609 147.756 188.98 148.683 190.13 149.849C191.319 150.986 192.268 152.352 192.915 153.866C193.561 155.379 193.895 157.007 193.895 158.653C193.895 160.299 193.561 161.927 192.915 163.44C192.268 164.953 191.319 166.32 190.13 167.456L159.224 198.925L128.319 168.58C127.129 167.444 126.182 166.077 125.534 164.564C124.887 163.051 124.554 161.422 124.554 159.777C124.554 158.131 124.887 156.503 125.534 154.989C126.182 153.476 127.129 152.11 128.319 150.973V149.849Z" fill="black"/>
<path d="M314.5 238.634C316.241 240.389 318.313 241.783 320.595 242.733C322.878 243.685 325.326 244.173 327.798 244.173C330.272 244.173 332.72 243.685 335.003 242.733C337.285 241.783 339.355 240.389 341.098 238.634L385.116 194.616C393.385 186.226 398.43 175.186 399.357 163.442C400.284 151.697 397.035 140.003 390.185 130.419C383.332 120.835 373.318 113.978 361.904 111.056C350.492 108.135 338.412 109.336 327.798 114.448C317.168 109.02 304.942 107.589 293.346 110.415C281.75 113.241 271.553 120.135 264.61 129.845C257.669 139.555 254.444 151.433 255.521 163.321C256.599 175.208 261.908 186.313 270.483 194.616L314.5 238.634ZM296.893 149.849C298.029 148.66 299.395 147.712 300.91 147.065C302.423 146.418 304.05 146.085 305.696 146.085C307.341 146.085 308.971 146.418 310.484 147.065C311.996 147.712 313.362 148.66 314.5 149.849C316.241 151.605 318.313 152.999 320.595 153.949C322.878 154.9 325.326 155.39 327.798 155.39C330.272 155.39 332.72 154.9 335.003 153.949C337.285 152.999 339.355 151.605 341.098 149.849C342.248 148.683 343.618 147.756 345.129 147.124C346.642 146.492 348.262 146.166 349.901 146.166C351.539 146.166 353.162 146.492 354.673 147.124C356.184 147.756 357.555 148.683 358.705 149.849C359.894 150.986 360.842 152.352 361.488 153.866C362.136 155.379 362.47 157.007 362.47 158.653C362.47 160.299 362.136 161.927 361.488 163.44C360.842 164.953 359.894 166.32 358.705 167.456L327.798 198.925L296.893 168.58C295.703 167.444 294.756 166.077 294.108 164.564C293.461 163.051 293.128 161.422 293.128 159.777C293.128 158.131 293.461 156.503 294.108 154.989C294.756 153.476 295.703 152.11 296.893 150.973V149.849Z" fill="black"/>
<path d="M374.616 262.233C369.648 262.233 364.885 264.208 361.371 267.72C357.859 271.232 355.886 275.997 355.886 280.965C355.886 332.661 305.499 374.619 243.5 374.619C181.501 374.619 131.116 332.661 131.116 280.965C131.116 275.997 129.142 271.232 125.63 267.72C122.117 264.208 117.353 262.233 112.385 262.233C107.417 262.233 102.653 264.208 99.1402 267.72C95.6276 271.232 93.6541 275.997 93.6541 280.965C93.6541 353.265 160.898 412.081 243.5 412.081C326.103 412.081 393.348 353.265 393.348 280.965C393.348 275.997 391.373 271.232 387.861 267.72C384.349 264.208 379.584 262.233 374.616 262.233Z" fill="black"/>
</g>
<defs>
<clipPath id="clip0_1_62">
<rect width="487" height="487" fill="white"/>
</clipPath>
</defs>
</svg>
