<svg width="487" height="487" viewBox="0 0 487 487" fill="none" xmlns="http://www.w3.org/2000/svg">
<rect width="487" height="487" fill="white"/>
<path d="M229.878 0C245.316 0.595431 257.685 3.6666 267.863 12.7548C278.071 21.6549 280.138 43.4038 280.576 53.0874C281.171 62.6456 280.827 91.3203 290.754 105.235C301.025 119.682 312.11 123.881 325.325 123.881C328.362 123.881 331.525 123.693 334.813 123.286C352.349 121.186 357.266 110.813 357.266 110.813C357.266 110.813 342.548 106.833 342.548 88.2492C342.454 75.7451 353.414 64.0872 369.416 59.2924C374.551 57.8195 380.188 57.036 386.044 57.036C404.895 57.036 426.064 64.9333 440.155 83.4544C472.284 125.887 474.883 187.561 467.023 245.161C459.226 302.855 422.619 356.131 421.429 357.666C420.803 358.638 420.051 359.17 419.331 359.17C418.893 359.17 418.392 358.951 417.985 358.512C402.139 343.407 387.202 322.379 380.752 308.402C373.737 313.761 377.495 325.419 381.096 338.048C384.885 350.897 393.747 367.726 396.659 373.147C399.822 378.412 403.768 384.711 398.444 387.97C397.849 388.315 397.129 388.503 396.252 388.503C389.144 388.503 372.641 376.187 353.978 351.398C333.153 323.695 322.507 298.812 322.507 298.812C321.035 299.377 318.655 301.727 318.937 308.809C319.062 315.861 326.671 342.53 340.888 367.005C355.262 391.668 368.633 407.181 371.169 410.534C372.766 412.759 371.42 413.919 370.324 414.639C369.384 415.454 343.769 439.334 306.755 459.485C262.852 482.863 243.437 486.937 243.437 486.937C243.437 486.937 223.991 482.738 180.088 459.36C143.043 439.24 117.553 415.454 116.488 414.733C115.424 413.919 114.014 412.634 115.674 410.628C118.367 407.118 131.676 391.7 146.081 367.036C160.36 342.373 167.688 315.861 167.969 308.747C168.376 301.727 165.84 299.157 164.306 298.812C164.306 298.812 153.753 323.539 132.96 351.398C114.39 376.187 97.7309 388.503 90.6538 388.503C89.8083 388.503 89.0881 388.315 88.5244 387.97C83.0131 384.743 87.1153 378.538 90.1841 373.179C93.3469 367.726 102.084 350.803 105.685 338.048C109.474 325.575 113.075 313.886 106.186 308.402C99.7663 322.41 84.7041 343.313 68.9215 358.638C68.4831 358.993 68.0656 359.17 67.669 359.17C66.8548 359.17 66.1659 358.638 65.383 357.603C64.3183 356.131 27.7743 302.792 19.883 245.192C12.0544 187.686 14.6535 125.887 46.7822 83.4857C60.9677 64.996 81.9797 57.1614 100.674 57.1614C106.624 57.1614 112.355 57.9135 117.553 59.4178C133.429 64.0872 144.421 75.6511 144.546 88.2805C144.421 106.864 129.797 110.813 129.797 110.813C129.797 110.813 135.12 121.437 152.03 123.286C157.041 123.756 161.738 123.756 161.738 123.756C198.094 123.442 206.987 97.0239 208.365 73.3007C209.9 49.5775 197.248 40.6147 180.182 38.5777C178.147 38.421 176.205 38.2329 174.483 38.2329C162.114 38.2329 158.356 43.7485 158.356 43.7485C152.782 34.7544 157.761 22.4697 168.283 15.5439C179.149 8.27336 191.894 6.80045 201.852 6.80045C203.637 6.80045 205.359 6.83179 207.019 6.95714C211.183 2.28771 213.876 0.0313385 226.778 0.0313385C227.717 0.0313385 228.751 0.0313385 229.878 0Z" fill="#00AFE9"/>
</svg>
