<svg width="487" height="487" viewBox="0 0 487 487" fill="none" xmlns="http://www.w3.org/2000/svg">
<rect width="487" height="487" fill="white"/>
<g clip-path="url(#clip0_1_31)">
<path d="M365.155 120C432.378 120 486.871 175.071 486.871 243C486.871 310.929 432.378 366 365.155 366H0V243C0 175.07 54.494 120 121.717 120H365.155ZM168.379 165.778V301.09H192.729L192.724 165.778H168.379ZM261.037 186.102C229.741 186.102 208.957 210.36 208.957 243.71C208.957 277.071 229.953 300.905 261.037 300.905C282.258 300.905 299.046 290.719 308.288 271.011L288.136 261.059C282.891 272.766 273.638 279.252 261.452 279.252C245.493 279.252 234.566 267.119 232.254 250.659H309.967C310.174 247.411 310.381 244.599 310.381 241.334C310.381 207.761 292.323 186.107 261.032 186.106L261.037 186.102ZM104.515 186.085C72.4063 186.085 50.7207 210.125 50.7207 243.486C50.7207 276.853 72.4288 300.894 104.728 300.894C126.631 300.894 143.211 289.639 152.156 269.49L131.109 259.946C125.993 271.653 117.277 279.006 104.75 279.006V279.033C86.0369 279.033 74.5449 263.44 74.5449 243.509C74.5449 223.577 86.0423 207.979 104.537 207.979C117.087 207.979 126.004 215.124 131.109 226.82L151.944 217.063C143.005 196.925 126.419 186.085 104.521 186.085H104.515ZM381.5 186.085C349 186.085 326.62 210.333 326.62 243.476C326.62 276.618 348.782 300.871 381.5 300.871C414.219 300.866 436.162 276.4 436.162 243.257C436.162 210.12 414 186.062 381.5 186.062V186.085ZM381.5 207.973C400.437 207.978 411.85 223.571 411.851 243.279C411.851 262.987 400.241 279.017 381.5 279.017C362.563 279.017 350.937 263.206 350.937 243.498C350.937 223.79 362.563 207.979 381.5 207.979V207.973ZM261.037 207.56C275.535 207.56 284.984 217.103 287.509 231.812H233.1C236.66 217.511 246.539 207.56 261.037 207.56Z" fill="#47201C"/>
</g>
<defs>
<clipPath id="clip0_1_31">
<rect width="487" height="246" fill="white" transform="translate(0 120)"/>
</clipPath>
</defs>
</svg>
