<svg width="487" height="487" viewBox="0 0 487 487" fill="none" xmlns="http://www.w3.org/2000/svg">
<g clip-path="url(#clip0_1_14)">
<rect width="487" height="487" fill="white"/>
<g style="mix-blend-mode:difference">
<path fill-rule="evenodd" clip-rule="evenodd" d="M267.006 175.832C266.834 175.832 266.669 175.765 266.546 175.646C266.423 175.526 266.351 175.363 266.346 175.192H266.308V175.056L251.954 39.2849C256.919 38.9357 261.934 38.7029 266.986 38.7029C272.039 38.7029 277.044 38.9357 282.019 39.2849L267.646 175.182C267.641 175.35 267.572 175.51 267.453 175.629C267.334 175.748 267.174 175.827 267.006 175.832ZM581.082 266.245V265.547C581.082 193.573 635.51 137.119 709.461 137.119C759.011 137.119 791.801 158.294 813.08 188.277L762.143 228.144C748.178 210.868 732.485 199.218 708.773 199.218C674.576 199.218 650.504 228.852 650.504 264.839V265.547C650.504 302.582 674.576 331.517 708.773 331.517C734.241 331.517 748.895 319.528 763.889 301.534L814.826 338.219C791.452 370.326 760.747 393.965 707.027 393.965C637.246 393.965 581.082 339.975 581.082 266.245ZM829.5 294.473V293.764C829.5 239.076 873.453 193.922 933.817 193.922C994.17 193.922 1037.78 238.736 1037.78 293.056V293.764C1037.78 348.453 993.472 393.606 933.118 393.606C872.765 393.606 829.5 349.151 829.5 294.473ZM973.58 294.473V293.764C973.58 270.135 956.831 250.376 933.109 250.376C909.376 250.376 893.684 269.427 893.684 293.056V293.764C893.684 317.044 910.424 336.813 933.807 336.813C957.18 336.813 973.58 317.403 973.58 294.473ZM1080.34 339.277L1068.49 353.041C1097.79 379.493 1127.8 392.549 1166.86 392.549C1213.96 392.549 1247.81 365.03 1247.81 325.163V324.455C1247.81 288.119 1224.43 268.001 1167.56 256.361C1109.65 244.023 1096.39 228.852 1096.39 202.4V201.692C1096.39 176.288 1119.77 155.122 1156.05 155.122C1182.91 155.122 1205.59 162.882 1228.96 182.99L1240.47 168.518C1215.7 148.41 1191.98 138.535 1156.74 138.535C1111.4 138.535 1078.25 166.762 1078.25 203.448V204.156C1078.25 241.908 1101.62 261.318 1160.58 273.666C1216.05 284.947 1229.66 300.118 1229.66 326.23V326.929C1229.66 355.156 1203.84 375.962 1167.91 375.962C1131.98 375.962 1107.21 364.681 1080.34 339.277ZM1369.93 158.993H1284.81V142.066H1473.2V158.993H1388.07V389.028H1369.93V158.993ZM1607.17 140.291H1589.72L1475.98 389.028H1494.83L1525.87 319.867H1669.96L1701.02 389.028H1720.9L1607.17 140.291ZM1598.1 160.409L1662.29 303.29H1533.55L1598.1 160.409ZM1772.54 142.066H1875.1C1905.46 142.066 1928.84 151.242 1943.84 166.413C1955.35 178.053 1962.33 194.281 1962.33 212.275V212.983C1962.33 254.256 1931.64 277.895 1890.82 283.541L1971.41 389.038H1948.38L1870.58 286.722H1790.69V389.038H1772.54V142.066ZM1873.02 270.135C1913.84 270.135 1944.19 248.96 1944.19 213.681V212.983C1944.19 179.46 1918.72 158.993 1874.07 158.993H1790.69V270.145L1873.02 270.135ZM248.695 177.238C248.792 177.587 249.122 177.811 249.471 177.723C249.636 177.682 249.779 177.578 249.87 177.433C249.96 177.288 249.991 177.114 249.956 176.947L236.32 40.9242C226.282 42.3792 216.448 44.5132 206.885 47.2874L248.637 177.112L248.666 177.248L248.695 177.238ZM183.114 252.85C183.099 253.021 183.02 253.181 182.892 253.296C182.764 253.411 182.597 253.474 182.425 253.471L182.29 253.461L48.3532 253.829C48.7037 243.603 49.7405 233.411 51.4567 223.323L182.551 252.132C182.718 252.158 182.869 252.247 182.974 252.38C183.078 252.513 183.128 252.681 183.114 252.85ZM182.571 271.6C182.742 271.569 182.896 271.473 182.999 271.332C183.102 271.191 183.146 271.016 183.124 270.843C183.102 270.68 183.021 270.53 182.896 270.422C182.77 270.315 182.61 270.257 182.445 270.261L48.3629 269.873C48.7218 280.252 49.7789 290.418 51.4664 300.37L182.464 271.6H182.571ZM186.799 288.439C186.854 288.604 186.845 288.784 186.773 288.942C186.701 289.1 186.572 289.226 186.411 289.293V289.273L186.295 289.322L64.026 345.242C60.2549 335.741 57.1408 325.993 54.7057 316.065L185.994 287.993C186.159 287.952 186.333 287.974 186.481 288.055C186.63 288.136 186.744 288.279 186.799 288.439ZM193.753 305.783C193.895 305.679 193.995 305.528 194.034 305.357C194.073 305.186 194.049 305.006 193.966 304.852C193.878 304.709 193.74 304.604 193.578 304.558C193.417 304.511 193.245 304.526 193.094 304.599L70.3785 359.889C74.7781 369.083 79.8041 377.963 85.4209 386.467L193.637 305.831L193.753 305.763V305.783ZM204.354 319.411C204.464 319.546 204.52 319.716 204.513 319.889C204.506 320.062 204.435 320.227 204.315 320.352H204.354L204.257 320.43L114.895 422.183C107.668 415.063 100.94 407.453 94.7605 399.407L203.452 319.353C203.578 319.24 203.744 319.182 203.913 319.191C204.082 319.2 204.24 319.285 204.354 319.411ZM217.611 332.37C217.707 332.225 217.744 332.048 217.713 331.877C217.682 331.705 217.587 331.552 217.447 331.449C217.308 331.354 217.139 331.315 216.974 331.34C216.808 331.365 216.658 331.453 216.554 331.585L126.552 432.95C134.243 439.512 142.377 445.537 150.895 450.982L217.553 332.487L217.611 332.37ZM232.722 340.421C232.881 340.494 233.007 340.625 233.072 340.788C233.137 340.95 233.137 341.132 233.071 341.294L233.032 341.421L191.959 471.527C182.513 468.01 173.328 463.829 164.473 459.014L231.868 340.751C231.944 340.6 232.074 340.483 232.232 340.423C232.39 340.364 232.565 340.357 232.722 340.421ZM250.014 346.756C250.041 346.585 250.003 346.411 249.908 346.267C249.813 346.124 249.667 346.021 249.5 345.98C249.336 345.947 249.165 345.98 249.025 346.07C248.884 346.161 248.783 346.302 248.744 346.464L206.943 476.415C216.506 479.199 226.321 481.333 236.388 482.779L250.014 346.882V346.756ZM267.035 347.861C267.384 347.852 267.675 348.152 267.694 348.502H267.724V348.637L282.106 484.418C277.141 484.777 272.117 485 267.064 485C262.001 485 256.997 484.777 252.031 484.418L266.405 348.502C266.409 348.333 266.478 348.173 266.597 348.054C266.716 347.935 266.867 347.866 267.035 347.861ZM285.346 346.474C285.249 346.125 284.919 345.902 284.57 345.989C284.403 346.029 284.257 346.132 284.165 346.277C284.073 346.422 284.04 346.597 284.075 346.765L297.721 482.798C307.769 481.343 317.603 479.209 327.146 476.425L285.404 346.61L285.365 346.474H285.346ZM301.329 340.441C301.406 340.403 301.491 340.381 301.577 340.377C301.663 340.372 301.749 340.384 301.83 340.413C301.912 340.442 301.986 340.487 302.05 340.545C302.114 340.603 302.165 340.673 302.202 340.751L302.221 340.761L302.27 340.877L369.597 459.023C360.771 463.786 351.596 468.015 342.111 471.536L300.999 341.304C300.93 341.146 300.926 340.966 300.988 340.805C301.049 340.644 301.172 340.513 301.329 340.441ZM317.525 331.565C317.417 331.433 317.262 331.347 317.093 331.326C316.923 331.304 316.752 331.348 316.614 331.449C316.482 331.554 316.393 331.705 316.367 331.872C316.34 332.039 316.376 332.209 316.468 332.351L383.194 450.963C391.715 445.522 399.849 439.497 407.537 432.93L317.622 331.662L317.525 331.565ZM329.707 319.411C329.818 319.279 329.977 319.195 330.149 319.179C330.322 319.162 330.494 319.215 330.628 319.324V319.343L330.725 319.431L439.29 399.407C433.113 407.452 426.392 415.065 419.175 422.192L329.736 320.342C329.613 320.22 329.542 320.056 329.536 319.883C329.531 319.709 329.592 319.541 329.707 319.411ZM340.957 304.59C340.637 304.434 340.239 304.541 340.084 304.852C339.998 305 339.973 305.176 340.014 305.343C340.056 305.51 340.161 305.653 340.307 305.744L448.61 386.448C454.231 377.944 459.26 369.064 463.662 359.87L341.073 304.638L340.967 304.57L340.957 304.59ZM347.261 288.439C347.309 288.273 347.42 288.132 347.57 288.046C347.721 287.961 347.899 287.938 348.066 287.983L348.192 288.022L479.355 316.055C476.915 325.981 473.804 335.729 470.044 345.233L347.649 289.264C347.494 289.199 347.368 289.078 347.296 288.926C347.224 288.774 347.212 288.6 347.261 288.439ZM351.732 270.242H351.596C351.428 270.236 351.263 270.296 351.137 270.407C351.011 270.519 350.932 270.675 350.917 270.843C350.903 271.01 350.951 271.177 351.054 271.31C351.156 271.443 351.305 271.533 351.47 271.561L482.565 300.37C484.262 290.418 485.309 280.233 485.668 269.873L351.732 270.242ZM350.908 252.879C350.885 252.704 350.931 252.528 351.036 252.387C351.141 252.246 351.297 252.151 351.47 252.122V252.103H351.596L482.565 223.352C484.262 233.304 485.309 243.489 485.668 253.849L351.596 253.461C351.43 253.467 351.267 253.411 351.139 253.303C351.012 253.196 350.929 253.044 350.908 252.879ZM347.629 234.429C347.469 234.496 347.34 234.622 347.268 234.78C347.196 234.938 347.187 235.118 347.242 235.283C347.297 235.443 347.41 235.577 347.559 235.658C347.708 235.738 347.882 235.76 348.047 235.72L479.335 207.648C476.903 197.72 473.793 187.971 470.025 178.47L347.765 234.371L347.649 234.42L347.629 234.429ZM340.074 218.871C339.985 218.717 339.957 218.536 339.997 218.363C340.037 218.19 340.141 218.039 340.288 217.939H340.268L340.385 217.881L448.601 137.265C454.217 145.769 459.243 154.649 463.643 163.843L340.957 219.113C340.807 219.187 340.635 219.204 340.474 219.159C340.313 219.114 340.165 219.011 340.074 218.871ZM329.716 203.37C329.597 203.496 329.528 203.662 329.523 203.835C329.518 204.008 329.576 204.178 329.687 204.311C329.93 204.583 330.327 204.602 330.589 204.36L439.271 124.315C433.093 116.27 426.372 108.657 419.156 101.53L329.804 203.273L329.707 203.351L329.716 203.37ZM316.594 192.273C316.454 192.17 316.358 192.017 316.328 191.846C316.297 191.674 316.333 191.497 316.429 191.352L316.41 191.371L316.478 191.255L383.145 72.7499C391.68 78.211 399.807 84.2153 407.489 90.7822L317.487 192.128C317.384 192.262 317.234 192.351 317.068 192.376C316.901 192.401 316.732 192.371 316.594 192.273ZM300.97 182.418C300.904 182.581 300.904 182.762 300.969 182.925C301.034 183.088 301.16 183.219 301.319 183.291C301.649 183.427 301.998 183.291 302.173 182.971L369.548 64.7183C360.693 59.9004 351.509 55.7157 342.063 52.1956L300.98 182.302L300.931 182.418H300.97ZM284.541 177.733C284.192 177.665 283.978 177.316 284.027 176.957L284.007 176.976V176.841L297.643 40.9436C307.71 42.3986 317.525 44.5229 327.088 47.3068L285.288 177.248C285.248 177.409 285.149 177.548 285.01 177.639C284.872 177.729 284.704 177.762 284.541 177.733Z" fill="white"/>
</g>
<path d="M164.59 1.09605C162.745 0.34234 160.767 -0.0290873 158.775 0.00425923C156.783 0.0376058 154.818 0.475033 153 1.29005L152.884 1.33855C145.358 4.73355 141.905 13.7739 145.348 21.9025L231.917 184.019L231.965 184.145C232.003 184.221 232.056 184.289 232.121 184.346C232.185 184.402 232.26 184.444 232.341 184.471C232.422 184.498 232.508 184.509 232.593 184.503C232.678 184.497 232.762 184.474 232.838 184.436C232.915 184.402 232.985 184.353 233.043 184.293C233.101 184.232 233.147 184.161 233.178 184.082C233.209 184.004 233.223 183.92 233.222 183.836C233.22 183.752 233.202 183.669 233.168 183.592L172.94 9.47685L172.872 9.32165C172.103 7.47393 170.975 5.79721 169.553 4.3886C168.131 2.97998 166.444 1.86746 164.59 1.11545V1.09605Z" fill="#00ABD6"/>
<path d="M113.673 29.1195C111.706 28.7766 109.69 28.8335 107.745 29.2868C105.801 29.7401 103.967 30.5805 102.354 31.7579L102.238 31.8355C95.5752 36.7825 94.0235 46.3273 99.0667 53.5635L216.806 193.777L216.884 193.874C217.117 194.146 217.514 194.214 217.796 193.99C217.928 193.885 218.016 193.734 218.043 193.567C218.07 193.401 218.034 193.23 217.941 193.088L123.546 35.5312L123.449 35.3954C122.319 33.7511 120.872 32.349 119.193 31.2714C117.515 30.1937 115.638 29.4621 113.673 29.1195Z" fill="#0051D9"/>
<path d="M69.5735 67.318C65.539 67.4829 61.8147 69.2289 59.0507 72.2844L58.9634 72.3814C53.4546 78.6282 53.8911 88.2894 60.2824 94.3034L204.043 206.513L204.14 206.591C204.421 206.814 204.819 206.794 205.062 206.513C205.174 206.384 205.233 206.217 205.227 206.047C205.222 205.876 205.152 205.713 205.032 205.592L80.5231 71.489L80.4068 71.3726C78.9659 70.0032 77.2642 68.9376 75.4031 68.2394C73.542 67.5411 71.5595 67.2342 69.5735 67.318Z" fill="#EF0059"/>
<path d="M34.2128 114.014C32.2733 114.519 30.4545 115.408 28.8638 116.627C27.273 117.847 25.9425 119.372 24.9508 121.114L24.8829 121.231C22.8898 124.811 22.3767 129.029 23.4533 132.983C24.5299 136.936 27.1108 140.312 30.6438 142.386L194.151 221.664L194.257 221.732C194.578 221.878 194.965 221.781 195.13 221.461C195.217 221.312 195.242 221.136 195.2 220.969C195.158 220.803 195.053 220.659 194.907 220.568L45.7928 115.779L45.6667 115.692C43.973 114.654 42.0865 113.971 40.1212 113.682C38.156 113.394 36.1527 113.507 34.2322 114.014H34.2128Z" fill="#FF5700"/>
<path d="M9.1616 167.189C7.36676 168.095 5.76906 169.348 4.46068 170.874C3.15231 172.401 2.15917 174.172 1.53858 176.084L1.49009 176.22C0.257176 180.119 0.60776 184.347 2.46608 187.99C4.3244 191.633 7.54121 194.398 11.4214 195.688L187.498 238.562L187.633 238.601C187.801 238.646 187.979 238.623 188.129 238.538C188.28 238.452 188.391 238.311 188.438 238.145C188.485 237.985 188.471 237.814 188.399 237.664C188.328 237.513 188.204 237.395 188.05 237.33L20.858 166.452L20.7028 166.404C18.8292 165.75 16.8427 165.481 14.8627 165.615C12.8827 165.748 10.9501 166.28 9.181 167.18L9.1616 167.189Z" fill="#FF9701"/>
</g>
<defs>
<clipPath id="clip0_1_14">
<rect width="487" height="487" fill="white"/>
</clipPath>
</defs>
</svg>
