<svg width="487" height="487" viewBox="0 0 487 487" fill="none" xmlns="http://www.w3.org/2000/svg">
<g clip-path="url(#clip0_1_12)">
<rect width="487" height="487" fill="white"/>
<path d="M104.712 185.557C137.02 170.669 171.151 161.57 204.619 157.6C208.264 157.103 209.755 159.585 209.424 162.397C205.116 188.039 202.3 214.177 201.14 240.314C200.808 243.292 199.317 245.277 195.838 245.939C177.281 249.579 159.222 255.203 139.174 264.302C157.068 295.403 178.938 324.022 202.797 347.844C205.613 350.656 207.104 353.634 207.933 358.597C214.229 398.631 224.998 438.996 239.578 477.21C240.407 479.361 240.407 480.849 239.247 482.007C237.922 483.331 235.768 483.331 233.779 482.007C88.8064 394.33 1.49115 236.51 0 70.9144C0 66.944 1.32547 63.9663 4.80482 62.1466C81.682 18.9694 168.169 -1.70934 254.987 0.110388C258.798 0.110388 260.289 3.58441 258.798 6.72758C246.868 31.5421 236.762 56.8528 228.975 82.1636C228.146 85.1413 226.158 86.6302 223.01 86.7956C176.619 89.1116 131.387 99.6991 89.9662 116.904C92.9485 140.395 98.0847 163.555 104.878 185.723L104.712 185.557ZM265.094 86.961C262.277 86.6302 260.289 84.1487 261.117 81.171C270.23 54.7022 280.668 29.8878 292.597 6.72758C293.923 3.91527 296.408 2.92269 299.556 3.25355C365.001 10.5325 426.801 31.2112 481.973 61.9811C485.287 63.8009 486.778 66.7786 486.778 70.7489C485.618 227.576 407.084 377.456 274.703 468.277C272.218 470.096 268.904 469.104 267.91 466.126C258.301 440.319 250.514 414.181 244.88 388.87C244.052 385.562 244.88 382.915 247.531 380.93C327.722 317.901 383.723 223.772 397.309 116.738C356.551 99.8646 312.313 89.4425 265.425 86.961H265.094ZM604.248 121.04C604.248 118.558 605.905 116.904 608.39 116.904H798.76C801.08 116.904 802.902 119.385 802.074 121.536L785.009 168.683C784.015 171.33 782.192 172.488 779.375 172.488H662.9V223.441H759.99C762.31 223.441 764.132 225.922 763.304 228.073L746.57 274.228C745.576 277.04 743.753 278.198 740.937 278.198H662.9V363.725C662.9 366.207 661.243 367.861 658.758 367.861H608.39C605.905 367.861 604.248 366.207 604.248 363.725V121.04ZM859.898 120.709C860.892 118.062 862.714 116.904 865.531 116.904H932.964C935.781 116.904 937.603 118.062 938.597 120.709L1026.91 363.394C1027.73 365.545 1025.91 368.026 1023.59 368.026H970.243C967.426 368.026 965.769 366.703 964.775 364.056L947.875 315.089H850.288L833.388 364.056C832.56 366.703 830.737 368.026 827.921 368.026H775.233C772.914 368.026 771.091 365.545 771.92 363.394L860.229 120.709H859.898ZM928.988 260.331L898.999 173.481L869.01 260.331H929.153H928.988ZM1051.59 121.04C1051.59 118.558 1053.25 116.904 1055.74 116.904H1114.22C1117.2 116.904 1119.03 117.896 1120.52 120.543L1208.16 269.265V121.04C1208.16 118.558 1209.82 116.904 1212.31 116.904H1261.68C1264.17 116.904 1265.82 118.558 1265.82 121.04V363.891C1265.82 366.372 1264.17 368.026 1261.68 368.026H1203.86C1200.87 368.026 1199.05 367.034 1197.56 364.387L1109.25 214.507V363.891C1109.25 366.372 1107.59 368.026 1105.11 368.026H1055.74C1053.25 368.026 1051.59 366.372 1051.59 363.891V121.04ZM1409.3 312.442C1449.23 312.442 1479.39 282.334 1479.39 242.465C1479.39 202.596 1449.23 172.488 1409.3 172.488H1319.84C1317.35 172.488 1315.69 170.834 1315.69 168.353V121.04C1315.69 118.558 1317.35 116.904 1319.84 116.904H1409.3C1483.03 116.904 1538.21 170.834 1538.21 242.465C1538.21 314.096 1483.03 368.026 1409.3 368.026H1319.84C1317.35 368.026 1315.69 366.372 1315.69 363.891V246.435C1315.69 230.72 1320.66 218.478 1329.61 209.545C1337.73 201.438 1350.32 196.145 1361.42 196.145H1370.2C1372.69 196.145 1374.34 197.799 1374.34 200.28V312.276H1409.3V312.442ZM1574.32 268.934V121.04C1574.32 118.558 1575.98 116.904 1578.47 116.904H1628.83C1631.32 116.904 1632.98 118.558 1632.98 121.04V268.934C1632.98 297.388 1652.86 317.239 1681.36 317.239C1709.85 317.239 1729.74 297.553 1729.74 268.934V121.04C1729.74 118.558 1731.39 116.904 1733.88 116.904H1784.25C1786.73 116.904 1788.39 118.558 1788.39 121.04V268.934C1788.39 330.639 1744.81 372.824 1681.36 372.824C1617.9 372.824 1574.32 330.639 1574.32 268.934ZM2008.08 214.011C2010.57 214.011 2012.23 215.665 2012.23 218.147V264.633C2012.23 267.114 2010.57 268.768 2008.08 268.768H1896.91V312.276H2014.88C2017.36 312.276 2019.02 313.931 2019.02 316.412V363.725C2019.02 366.207 2017.36 367.861 2014.88 367.861H1842.4C1839.92 367.861 1838.26 366.207 1838.26 363.725V121.04C1838.26 118.558 1839.92 116.904 1842.4 116.904H2014.88C2017.36 116.904 2019.02 118.558 2019.02 121.04V168.353C2019.02 170.834 2017.36 172.488 2014.88 172.488H1896.91V214.011H2008.08ZM2126.88 312.442H2242.86C2245.34 312.442 2247 314.096 2247 316.578V363.891C2247 366.372 2245.34 368.026 2242.86 368.026H2072.37C2069.88 368.026 2068.23 366.372 2068.23 363.891V121.04C2068.23 118.558 2069.88 116.904 2072.37 116.904H2122.74C2125.22 116.904 2126.88 118.558 2126.88 121.04V312.442Z" fill="white"/>
<path d="M104.712 185.557C137.02 170.669 171.151 161.57 204.619 157.6C208.264 157.103 209.755 159.585 209.424 162.397C205.116 188.039 202.3 214.177 201.14 240.314C200.808 243.292 199.317 245.277 195.838 245.939C177.281 249.579 159.222 255.203 139.174 264.302C157.068 295.403 178.938 324.022 202.797 347.844C205.613 350.656 207.104 353.634 207.933 358.597C214.229 398.631 224.998 438.996 239.578 477.21C240.407 479.361 240.407 480.849 239.247 482.007C237.922 483.331 235.768 483.331 233.779 482.007C88.8064 394.33 1.49115 236.51 0 70.9144C0 66.944 1.32547 63.9663 4.80482 62.1466C81.682 18.9694 168.169 -1.70934 254.987 0.110388C258.798 0.110388 260.289 3.58441 258.798 6.72758C246.868 31.5421 236.762 56.8528 228.975 82.1636C228.146 85.1413 226.158 86.6302 223.01 86.7956C176.619 89.1116 131.387 99.6991 89.9662 116.904C92.9485 140.395 98.0847 163.555 104.878 185.723L104.712 185.557ZM265.094 86.961C262.277 86.6302 260.289 84.1487 261.117 81.171C270.23 54.7022 280.668 29.8878 292.597 6.72758C293.923 3.91527 296.408 2.92269 299.556 3.25355C365.001 10.5325 426.801 31.2112 481.973 61.9811C485.287 63.8009 486.778 66.7786 486.778 70.7489C485.618 227.576 407.084 377.456 274.703 468.277C272.218 470.096 268.904 469.104 267.91 466.126C258.301 440.319 250.514 414.181 244.88 388.87C244.052 385.562 244.88 382.915 247.531 380.93C327.722 317.901 383.723 223.772 397.309 116.738C356.551 99.8646 312.313 89.4425 265.425 86.961H265.094ZM604.248 121.04C604.248 118.558 605.905 116.904 608.39 116.904H798.76C801.08 116.904 802.902 119.385 802.074 121.536L785.009 168.683C784.015 171.33 782.192 172.488 779.375 172.488H662.9V223.441H759.99C762.31 223.441 764.132 225.922 763.304 228.073L746.57 274.228C745.576 277.04 743.753 278.198 740.937 278.198H662.9V363.725C662.9 366.207 661.243 367.861 658.758 367.861H608.39C605.905 367.861 604.248 366.207 604.248 363.725V121.04ZM859.898 120.709C860.892 118.062 862.714 116.904 865.531 116.904H932.964C935.781 116.904 937.603 118.062 938.597 120.709L1026.91 363.394C1027.73 365.545 1025.91 368.026 1023.59 368.026H970.243C967.426 368.026 965.769 366.703 964.775 364.056L947.875 315.089H850.288L833.388 364.056C832.56 366.703 830.737 368.026 827.921 368.026H775.233C772.914 368.026 771.091 365.545 771.92 363.394L860.229 120.709H859.898ZM928.988 260.331L898.999 173.481L869.01 260.331H929.153H928.988ZM1051.59 121.04C1051.59 118.558 1053.25 116.904 1055.74 116.904H1114.22C1117.2 116.904 1119.03 117.896 1120.52 120.543L1208.16 269.265V121.04C1208.16 118.558 1209.82 116.904 1212.31 116.904H1261.68C1264.17 116.904 1265.82 118.558 1265.82 121.04V363.891C1265.82 366.372 1264.17 368.026 1261.68 368.026H1203.86C1200.87 368.026 1199.05 367.034 1197.56 364.387L1109.25 214.507V363.891C1109.25 366.372 1107.59 368.026 1105.11 368.026H1055.74C1053.25 368.026 1051.59 366.372 1051.59 363.891V121.04ZM1409.3 312.442C1449.23 312.442 1479.39 282.334 1479.39 242.465C1479.39 202.596 1449.23 172.488 1409.3 172.488H1319.84C1317.35 172.488 1315.69 170.834 1315.69 168.353V121.04C1315.69 118.558 1317.35 116.904 1319.84 116.904H1409.3C1483.03 116.904 1538.21 170.834 1538.21 242.465C1538.21 314.096 1483.03 368.026 1409.3 368.026H1319.84C1317.35 368.026 1315.69 366.372 1315.69 363.891V246.435C1315.69 230.72 1320.66 218.478 1329.61 209.545C1337.73 201.438 1350.32 196.145 1361.42 196.145H1370.2C1372.69 196.145 1374.34 197.799 1374.34 200.28V312.276H1409.3V312.442ZM1574.32 268.934V121.04C1574.32 118.558 1575.98 116.904 1578.47 116.904H1628.83C1631.32 116.904 1632.98 118.558 1632.98 121.04V268.934C1632.98 297.388 1652.86 317.239 1681.36 317.239C1709.85 317.239 1729.74 297.553 1729.74 268.934V121.04C1729.74 118.558 1731.39 116.904 1733.88 116.904H1784.25C1786.73 116.904 1788.39 118.558 1788.39 121.04V268.934C1788.39 330.639 1744.81 372.824 1681.36 372.824C1617.9 372.824 1574.32 330.639 1574.32 268.934ZM2008.08 214.011C2010.57 214.011 2012.23 215.665 2012.23 218.147V264.633C2012.23 267.114 2010.57 268.768 2008.08 268.768H1896.91V312.276H2014.88C2017.36 312.276 2019.02 313.931 2019.02 316.412V363.725C2019.02 366.207 2017.36 367.861 2014.88 367.861H1842.4C1839.92 367.861 1838.26 366.207 1838.26 363.725V121.04C1838.26 118.558 1839.92 116.904 1842.4 116.904H2014.88C2017.36 116.904 2019.02 118.558 2019.02 121.04V168.353C2019.02 170.834 2017.36 172.488 2014.88 172.488H1896.91V214.011H2008.08ZM2126.88 312.442H2242.86C2245.34 312.442 2247 314.096 2247 316.578V363.891C2247 366.372 2245.34 368.026 2242.86 368.026H2072.37C2069.88 368.026 2068.23 366.372 2068.23 363.891V121.04C2068.23 118.558 2069.88 116.904 2072.37 116.904H2122.74C2125.22 116.904 2126.88 118.558 2126.88 121.04V312.442Z" fill="#007AEB"/>
</g>
<defs>
<clipPath id="clip0_1_12">
<rect width="487" height="487" fill="white"/>
</clipPath>
</defs>
</svg>
