<svg width="487" height="487" viewBox="0 0 487 487" fill="none" xmlns="http://www.w3.org/2000/svg">
<g clip-path="url(#clip0_1_76)">
<rect width="487" height="487" fill="white"/>
<path d="M127.661 289.016C143.99 334.487 162.652 364.801 183.647 382.29C204.642 399.779 230.303 407.94 261.795 407.94C289.788 407.94 311.95 402.111 328.279 389.285C343.442 376.46 350.44 361.303 350.44 342.648C350.44 332.155 348.108 321.662 342.276 314.666C336.444 306.504 329.445 300.675 318.948 296.011C308.45 291.347 282.79 285.518 240.8 278.522C201.143 271.527 173.15 262.199 156.82 254.038C140.491 245.876 128.827 233.051 119.496 217.894C111.331 202.737 106.666 186.414 106.666 168.925C106.666 142.108 115.997 117.624 133.492 95.4712C156.82 67.4889 189.479 53.4978 231.469 53.4978C262.961 53.4978 293.287 63.9912 320.114 83.812L345.775 55.8297H362.104L372.602 186.414H346.941C335.277 149.104 320.114 123.454 300.286 105.965C281.624 89.6416 257.129 81.4801 227.97 81.4801C203.476 81.4801 183.647 87.3097 169.65 100.135C155.654 112.96 148.655 126.951 148.655 144.44C148.655 159.597 155.654 172.423 167.318 182.916C180.148 193.409 204.642 201.571 241.966 207.4C285.123 214.396 314.282 220.226 325.946 226.055C348.108 233.051 364.437 245.876 376.101 262.199C387.765 278.522 393.597 298.343 393.597 321.662C393.597 354.308 380.766 382.29 355.106 403.277C329.445 425.429 297.953 437.089 258.296 437.089C222.138 437.089 188.313 425.429 156.82 400.945L128.827 433.591H108.998L102 289.016H127.661ZM940.632 50C989.62 50 1031.61 67.4889 1065.44 103.633C1099.26 139.777 1115.59 186.414 1115.59 244.71C1115.59 284.352 1108.59 319.33 1093.43 347.312C1078.27 375.294 1056.1 398.613 1029.28 413.77C1001.28 430.093 972.124 438.254 939.466 438.254C891.644 438.254 851.987 419.6 818.161 383.456C784.336 347.312 769.173 300.675 769.173 243.544C769.173 186.414 785.502 138.611 819.328 103.633C851.987 67.4889 891.644 50 940.632 50ZM940.632 76.8164C911.472 76.8164 886.978 89.6416 868.316 116.458C849.654 143.274 840.323 185.248 840.323 241.212C840.323 299.509 849.654 342.648 868.316 369.465C886.978 396.281 911.472 409.106 940.632 409.106C972.124 409.106 995.452 396.281 1015.28 369.465C1033.94 342.648 1043.27 298.343 1043.27 237.715C1043.27 180.584 1033.94 139.777 1015.28 115.292C996.619 89.6416 972.124 76.8164 940.632 76.8164ZM1162.25 60.4934L1294.05 53.4978V202.737C1308.04 153.768 1325.54 116.458 1345.37 91.9734C1365.2 67.4889 1389.69 54.6637 1418.85 54.6637C1438.68 54.6637 1455.01 60.4934 1466.67 73.3186C1478.34 86.1438 1484.17 101.301 1484.17 122.288C1484.17 138.611 1479.5 151.436 1472.5 160.763C1464.34 170.091 1455.01 173.589 1442.18 173.589C1430.51 173.589 1421.18 168.925 1414.18 161.929C1407.19 154.934 1403.69 143.274 1403.69 130.449C1403.69 122.288 1404.85 114.126 1410.69 105.965C1415.35 98.969 1416.52 95.4712 1416.52 93.1394C1416.52 88.4757 1414.18 87.3097 1409.52 87.3097C1399.02 87.3097 1387.36 93.1394 1372.19 105.965C1353.53 123.454 1338.37 147.938 1329.04 178.252C1312.71 226.055 1305.71 263.365 1305.71 291.347V369.465C1305.71 378.792 1309.21 385.788 1315.04 389.285C1320.87 392.783 1331.37 396.281 1346.53 396.281H1393.19V425.429H1164.58V396.281H1201.9C1214.73 396.281 1224.06 393.949 1229.9 389.285C1236.89 384.622 1239.23 378.792 1239.23 371.796V137.445C1239.23 119.956 1234.56 105.965 1227.56 97.8031C1220.56 89.6416 1208.9 84.9779 1194.9 84.9779H1163.41L1162.25 60.4934ZM1547.15 60.4934L1652.13 53.4978C1657.96 81.4801 1661.46 107.131 1663.79 131.615C1683.62 103.633 1703.45 82.646 1723.28 70.9867C1743.11 59.3274 1765.27 53.4978 1788.59 53.4978C1813.09 53.4978 1834.08 60.4934 1851.58 73.3186C1867.91 86.1438 1880.74 108.296 1890.07 137.445C1907.57 109.462 1927.39 88.4757 1948.39 74.4845C1970.55 60.4934 1993.88 53.4978 2018.37 53.4978C2052.2 53.4978 2076.69 63.9912 2093.02 83.812C2115.18 109.462 2124.51 144.44 2124.51 185.248V367.133C2124.51 377.626 2126.85 385.788 2132.68 389.285C2139.68 395.115 2151.34 398.613 2165.34 398.613H2184V427.761H1999.71V398.613H2018.37C2034.7 398.613 2045.2 396.281 2051.03 391.617C2058.03 386.954 2060.36 378.792 2060.36 368.299V184.082C2060.36 156.1 2053.36 135.113 2040.53 121.122C2027.7 105.965 2009.04 98.969 1988.05 98.969C1971.72 98.969 1956.55 103.633 1943.72 111.794C1930.89 119.956 1920.4 132.781 1912.23 149.104C1901.73 172.423 1895.9 192.243 1895.9 208.566V365.967C1895.9 376.46 1898.24 384.622 1904.07 389.285C1909.9 393.949 1919.23 396.281 1930.89 396.281H1955.39V425.429H1768.77V396.281H1789.76C1802.59 396.281 1813.09 393.949 1820.09 389.285C1827.09 384.622 1830.58 377.626 1830.58 369.465V200.405C1830.58 164.261 1823.59 138.611 1811.92 122.288C1799.09 105.965 1781.6 97.8031 1760.6 97.8031C1732.61 97.8031 1711.61 107.131 1697.62 125.785C1676.62 152.602 1666.12 182.916 1666.12 219.06V367.133C1666.12 377.626 1668.46 385.788 1673.12 390.451C1680.12 396.281 1691.78 398.613 1705.78 398.613H1724.44V427.761H1540.15V398.613H1568.15C1578.65 398.613 1586.81 396.281 1592.64 391.617C1598.47 386.954 1600.81 379.958 1600.81 371.796V130.449C1600.81 117.624 1597.31 107.131 1590.31 100.135C1583.31 93.1394 1570.48 89.6416 1549.49 87.3097L1547.15 60.4934Z" fill="#1A1A1A"/>
</g>
<defs>
<clipPath id="clip0_1_76">
<rect width="487" height="487" fill="white"/>
</clipPath>
</defs>
</svg>
