<svg width="487" height="487" viewBox="0 0 487 487" fill="none" xmlns="http://www.w3.org/2000/svg">
<g clip-path="url(#clip0_1_4)">
<rect width="487" height="487" fill="white"/>
<circle cx="243.5" cy="243.5" r="243.5" fill="#5B1A4C"/>
<path d="M249.268 401C197.133 401 181.58 375.763 181.58 338.402C181.58 323.269 184.088 295.001 184.088 272.268C184.088 240.969 184.088 216.238 182.583 187.969C172.548 187.969 162.035 187.969 152 188.475V177.866C200.121 157.681 232.209 132.95 268.813 87L277.844 88.5157C275.837 104.659 274.833 123.351 274.332 143.03H336L319.967 190.473C304.435 189.967 288.882 189.462 273.351 188.957V237.409C273.351 262.646 272.849 290.914 274.355 316.656C275.358 335.325 281.881 341.387 295.405 341.387C314.447 341.387 318.963 321.202 320.468 278.285H328.997C326.991 364.603 308.449 400.954 249.291 400.954L249.268 401Z" fill="#5B1A4C"/>
<path d="M249.268 401C197.133 401 181.58 375.763 181.58 338.402C181.58 323.269 184.088 295.001 184.088 272.268C184.088 240.969 184.088 216.238 182.583 187.969C172.548 187.969 162.035 187.969 152 188.475V177.866C200.121 157.681 232.209 132.95 268.813 87L277.844 88.5157C275.837 104.659 274.833 123.351 274.332 143.03H336L319.967 190.473C304.435 189.967 288.882 189.462 273.351 188.957V237.409C273.351 262.646 272.849 290.914 274.355 316.656C275.358 335.325 281.881 341.387 295.405 341.387C314.447 341.387 318.963 321.202 320.468 278.285H328.997C326.991 364.603 308.449 400.954 249.291 400.954L249.268 401Z" fill="#EBE0EF"/>
</g>
<defs>
<clipPath id="clip0_1_4">
<rect width="487" height="487" fill="white"/>
</clipPath>
</defs>
</svg>
