<?xml version="1.0" encoding="UTF-8" standalone="no"?><!DOCTYPE svg PUBLIC "-//W3C//DTD SVG 1.1//EN" "http://www.w3.org/Graphics/SVG/1.1/DTD/svg11.dtd"><svg width="100%" height="100%" viewBox="0 0 1861 1861" version="1.1" xmlns="http://www.w3.org/2000/svg" xmlns:xlink="http://www.w3.org/1999/xlink" xml:space="preserve" xmlns:serif="http://www.serif.com/" style="fill-rule:evenodd;clip-rule:evenodd;stroke-linejoin:round;stroke-miterlimit:2;"><rect id="Artboard1" x="0" y="0" width="1861" height="1861" style="fill:none;"/><g><path d="M605.131,1533.828c0,-19.424 1.801,-38.407 5.061,-56.897l-0.085,-0.099c0.243,-1.288 0.546,-2.61 0.802,-3.904c0.592,-3.122 1.223,-6.225 1.906,-9.314c0.256,-1.177 0.546,-2.366 0.822,-3.556c0.73,-3.155 1.453,-6.31 2.274,-9.419c37.749,-149.216 165.373,-334.69 314.589,-496.434c-151.602,-164.328 -325.487,-304.164 -450.067,-356.539c-0.447,-0.191 -0.894,-0.388 -1.341,-0.578c-0.322,-0.131 -0.651,-0.283 -0.973,-0.414l-0.039,0.02c-25.55,-10.589 -53.551,-16.459 -82.926,-16.459c-96.638,0 -178.48,63.214 -206.527,150.531l-0.033,0.013c-0.112,0.342 -0.21,0.684 -0.316,1.019c-0.191,0.611 -0.381,1.223 -0.572,1.84c-31.104,98.156 -45.979,200.473 -45.979,336.786c0,434.916 351.99,787.616 786.63,788.773l0.046,-0.053c0.703,0.007 1.393,0.053 2.097,0.053c-179.696,0 -325.369,-145.673 -325.369,-325.369" style="fill:#ffb380;"/><path d="M1673.291,733.638c-0.191,-0.618 -0.375,-1.229 -0.572,-1.84c-0.105,-0.342 -0.204,-0.677 -0.309,-1.019l-0.039,-0.013c-28.047,-87.317 -109.883,-150.531 -206.52,-150.531c-29.382,0 -57.377,5.87 -82.933,16.459l-0.039,-0.02c-0.322,0.131 -0.651,0.283 -0.973,0.414c-0.447,0.191 -0.887,0.388 -1.334,0.578c-124.587,52.375 -298.472,192.211 -450.074,356.539c149.216,161.738 276.84,347.205 314.589,496.421c0.828,3.129 1.558,6.304 2.287,9.472c0.269,1.163 0.552,2.34 0.808,3.503c0.684,3.096 1.321,6.212 1.913,9.34c0.256,1.288 0.559,2.61 0.795,3.891l-0.079,0.099c3.26,18.49 5.055,37.473 5.055,56.897c0,179.696 -145.673,325.369 -325.369,325.369c0.71,0 1.4,-0.053 2.103,-0.053l0.046,0.053c434.64,-1.157 786.624,-353.857 786.624,-788.773c0,-136.313 -14.868,-238.63 -45.979,-336.786" style="fill:#ff5032;"/><path d="M1255.869,1533.828c0,-19.424 -1.801,-38.407 -5.061,-56.897l0.085,-0.099c-0.243,-1.282 -0.546,-2.596 -0.795,-3.891c-0.598,-3.129 -1.229,-6.244 -1.913,-9.34c-0.256,-1.163 -0.539,-2.34 -0.808,-3.503c-0.736,-3.168 -1.459,-6.343 -2.287,-9.472c-37.749,-149.216 -165.379,-334.683 -314.589,-496.421c-149.216,161.744 -276.84,347.218 -314.589,496.434c-0.822,3.109 -1.545,6.264 -2.274,9.419c-0.276,1.19 -0.565,2.379 -0.822,3.556c-0.684,3.089 -1.315,6.192 -1.906,9.314c-0.256,1.295 -0.559,2.616 -0.802,3.904l0.085,0.099c-3.26,18.49 -5.061,37.473 -5.061,56.897c0,179.696 145.673,325.369 325.369,325.369c179.696,0 325.369,-145.673 325.369,-325.369" style="fill:#ff7850;"/><path d="M358.64,1.802c119.795,0 216.913,97.118 216.913,216.913c0,119.795 -97.118,216.913 -216.913,216.913c-119.795,0 -216.913,-97.118 -216.913,-216.913c0,-119.795 97.118,-216.913 216.913,-216.913" style="fill:#ffb380;"/><path d="M1502.36,1.802c119.795,0 216.913,97.118 216.913,216.913c0,119.795 -97.118,216.913 -216.913,216.913c-119.795,0 -216.913,-97.118 -216.913,-216.913c0,-119.795 97.118,-216.913 216.913,-216.913" style="fill:#ff5032;"/></g></svg>